<?xml version="1.0" encoding="UTF-8"?>
<!DOCTYPE svg PUBLIC "-//W3C//DTD SVG 1.1//EN" "http://www.w3.org/Graphics/SVG/1.1/DTD/svg11.dtd">
<!-- Creator: CorelDRAW -->
<svg xmlns="http://www.w3.org/2000/svg" xml:space="preserve" width="1.70666in" height="1.70666in" version="1.1" style="shape-rendering:geometricPrecision; text-rendering:geometricPrecision; image-rendering:optimizeQuality; fill-rule:evenodd; clip-rule:evenodd"
viewBox="0 0 1706.66 1706.66"
 xmlns:xlink="http://www.w3.org/1999/xlink"
 xmlns:xodm="http://www.corel.com/coreldraw/odm/2003">
 <defs>
  <style type="text/css">
   <![CDATA[
    .fil0 {fill:black}
   ]]>
  </style>
 </defs>
 <g id="Layer_x0020_1">
  <metadata id="CorelCorpID_0Corel-Layer"/>
  <path class="fil0" d="M970.65 1209.46c-4.74,0 -9.49,-1.68 -13.28,-5.04l-117.32 -104.2c-8.96,-7.94 -8.96,-21.97 0,-29.92l246.58 -218.97c8.15,-7.24 20.83,-6.65 28.24,1.67l91.2 102.71c7.03,7.9 6.67,19.94 -0.82,27.43l-220.46 220.47c-3.88,3.87 -9.02,5.84 -14.15,5.84zm-87.19 -124.21l86.39 76.72 193.8 -193.82 -65.4 -73.65 -214.79 190.75zm-276.69 -198.97c-4.89,0 -9.61,-1.79 -13.28,-5.04l-511.66 -454.41c-3.31,-2.94 -5.55,-6.92 -6.37,-11.28l-73.43 -391.86c-2.58,-13.81 9.54,-25.93 23.34,-23.35l392.02 73.59c4.36,0.82 8.32,3.07 11.26,6.37l439.64 495.04c6.72,7.57 6.72,18.98 0,26.56l-246.59 277.64 -14.94 6.74zm-493.26 -484.82l491.57 436.58 221.5 -249.42 -423.29 -476.64 -356.56 -66.92 66.78 356.39z"/>
  <path class="fil0" d="M968.36 1379.51c-11.67,0 -22.62,-4.53 -30.86,-12.75l-55.38 -55.38c-17,-17.01 -17.04,-44.67 0.02,-61.7l369.21 -369.23c16.44,-16.43 45.26,-16.46 61.7,0l55.39 55.37c16.99,17.03 16.99,44.69 0,61.7l-369.23 369.23c-8.22,8.23 -19.16,12.76 -30.84,12.76zm313.85 -471.8l-372.83 372.82c0,3.91 49.9,51.36 56.41,57.94 1.7,1.74 3.4,1.72 5.11,0.02l369.23 -369.23c1.39,-1.39 1.39,-3.75 0,-5.14 -6.47,-6.46 -54.14,-56.4 -57.93,-56.4z"/>
  <path class="fil0" d="M1417.39 1567.72c-5.31,0 -10.39,-2.11 -14.15,-5.86l-313.7 -313.72c-7.82,-7.82 -7.82,-20.49 0,-28.3l128.6 -128.6c7.82,-7.82 20.49,-7.82 28.29,0l313.72 313.7c7.81,7.83 7.81,20.48 0,28.31l-128.61 128.61c-3.76,3.74 -8.84,5.86 -14.15,5.86zm-285.42 -333.73l285.43 285.44 100.33 -100.33 -285.44 -285.43 -100.32 100.32z"/>
  <path class="fil0" d="M1418.95 1706.66c-28.39,0 -45.6,-24.68 -69.28,-48.37 -19.61,-19.64 -19.59,-51.56 0,-71.17l235.76 -235.76c18.99,-18.96 52.21,-18.93 71.17,0 22.1,22.08 75.84,62.72 33.67,104.86l-235.75 235.76c-9.47,9.46 -22.12,14.68 -35.56,14.68zm202.07 -329.97c-1.61,0 -4.71,0.37 -7.31,2.99l-235.75 235.76c-11.13,11.11 13.76,28.31 33.68,48.27 3.98,3.98 10.59,4 14.57,0l235.76 -235.76c11.25,-11.23 -12.2,-26.55 -33.68,-48.25 -2.58,-2.63 -5.67,-3.01 -7.28,-3.01z"/>
  <path class="fil0" d="M1187.82 1338.14c-17.64,0 -26.81,-21.51 -14.15,-34.16l128.61 -128.61c18.65,-18.65 46.91,9.7 28.3,28.3l-128.61 128.61c-3.91,3.91 -9.04,5.86 -14.14,5.86z"/>
  <path class="fil0" d="M1260.54 1410.86c-17.64,0 -26.81,-21.51 -14.15,-34.16l128.6 -128.6c18.65,-18.65 46.91,9.69 28.3,28.29l-128.6 128.6c-3.89,3.91 -9.02,5.87 -14.14,5.87z"/>
  <path class="fil0" d="M1333.27 1483.57c-17.64,0 -26.81,-21.51 -14.15,-34.16l128.6 -128.6c18.65,-18.65 46.91,9.69 28.3,28.29l-128.6 128.6c-3.91,3.91 -9.04,5.87 -14.14,5.87z"/>
  <path class="fil0" d="M736.03 1209.46c-5.12,0 -10.25,-1.98 -14.14,-5.87l-220.47 -220.46c-7.48,-7.49 -7.85,-19.51 -0.82,-27.43l777.4 -875.39c2.96,-3.31 6.92,-5.55 11.28,-6.37l392.03 -73.59c13.81,-2.59 25.93,9.51 23.33,23.34l-73.42 391.87c-0.82,4.36 -3.06,8.33 -6.37,11.28l-875.54 777.57c-3.8,3.37 -8.54,5.06 -13.28,5.06zm-193 -241.29l193.81 193.82 856.33 -760.51 66.78 -356.41 -356.57 66.92 -760.35 856.18z"/>
  <path class="fil0" d="M738.31 1379.51c-11.67,0 -22.63,-4.53 -30.85,-12.76l-369.22 -369.21c-17,-17.03 -17,-44.69 0,-61.7l55.39 -55.39c16.46,-16.44 45.25,-16.44 61.7,0l369.22 369.23c17.01,17 17.01,44.69 0,61.68l-55.39 55.39c-8.21,8.23 -19.17,12.76 -30.85,12.76zm-313.83 -471.8c-3.87,0 -51.45,49.9 -57.96,56.4 -1.39,1.39 -1.39,3.75 0,5.14l369.22 369.2c1.74,1.75 3.43,1.71 5.12,0.02l55.39 -55.39c1.39,-1.39 1.39,-3.74 0,-5.11 -32.99,-32.81 -367.52,-370.26 -371.78,-370.26z"/>
  <path class="fil0" d="M289.28 1567.72c-5.31,0 -10.39,-2.11 -14.14,-5.86l-128.6 -128.61c-7.82,-7.82 -7.82,-20.49 0,-28.29l313.71 -313.71c7.82,-7.82 20.47,-7.82 28.28,0l128.6 128.6c7.81,7.83 7.81,20.48 0,28.31l-313.7 313.72c-3.75,3.73 -8.83,5.85 -14.14,5.85zm-100.31 -148.62l100.32 100.33 285.43 -285.44 -100.32 -100.32 -285.43 285.43z"/>
  <path class="fil0" d="M287.74 1706.66c-13.46,0 -26.1,-5.2 -35.58,-14.69l-235.76 -235.76c-41.54,-41.54 9.8,-80.98 33.68,-104.85 18.96,-18.96 52.2,-18.96 71.16,0l235.76 235.76c42.13,42.14 -11.54,82.77 -33.67,104.87 -9.49,9.47 -22.13,14.68 -35.59,14.68zm-202.08 -329.97c-8.24,0 -34.03,29.73 -40.97,36.67 -3.94,3.94 -3.94,10.64 0,14.58l235.76 235.76c11.18,11.2 26.85,-12.26 48.26,-33.68 3.98,-3.98 3.99,-10.59 0,-14.57l-235.76 -235.76c-2.6,-2.63 -5.68,-3 -7.29,-3z"/>
  <path class="fil0" d="M518.85 1338.14c-5.13,0 -10.24,-1.96 -14.14,-5.86l-128.6 -128.61c-18.65,-18.65 9.7,-46.91 28.28,-28.3l128.6 128.61c12.65,12.65 3.5,34.16 -14.14,34.16z"/>
  <path class="fil0" d="M446.14 1410.86c-5.13,0 -10.24,-1.96 -14.14,-5.87l-128.6 -128.6c-18.63,-18.63 9.67,-46.92 28.28,-28.29l128.6 128.6c12.66,12.66 3.48,34.16 -14.14,34.16z"/>
  <path class="fil0" d="M373.42 1483.57c-5.12,0 -10.24,-1.96 -14.14,-5.87l-128.6 -128.6c-18.64,-18.64 9.68,-46.91 28.28,-28.29l128.6 128.6c12.66,12.66 3.48,34.16 -14.14,34.16z"/>
  <path class="fil0" d="M625.79 1099.21c-17.63,0 -26.8,-21.52 -14.14,-34.16l496.15 -496.15c18.63,-18.63 46.93,9.67 28.3,28.28l-496.17 496.17c-3.91,3.91 -9.03,5.86 -14.14,5.86z"/>
 </g>
</svg>
