<?xml version="1.0" encoding="UTF-8" standalone="no"?>
<!DOCTYPE svg PUBLIC "-//W3C//DTD SVG 20010904//EN"
              "http://www.w3.org/TR/2001/REC-SVG-20010904/DTD/svg10.dtd">

<svg xmlns="http://www.w3.org/2000/svg"
     width="6.4in" height="3.6in"
     viewBox="0 0 1920 1080">
  <path id="Kijelölés"
        fill="none" stroke="black" stroke-width="1"
        d="M 609.00,705.00
           C 609.00,705.00 635.00,679.00 635.00,679.00
             637.20,676.80 643.93,670.78 644.42,668.00
             644.93,665.11 640.03,659.49 638.34,657.00
             633.17,649.38 626.14,637.34 622.31,629.00
             612.87,608.44 603.27,576.65 603.00,554.00
             603.00,554.00 602.18,538.00 602.18,538.00
             603.26,522.78 604.10,509.04 607.42,494.00
             616.35,453.58 637.66,415.35 668.00,387.09
             739.82,320.19 850.32,311.09 931.00,367.72
             951.99,382.45 969.41,399.89 983.98,421.00
             1003.03,448.61 1019.83,492.15 1020.00,526.00
             1020.00,526.00 1020.82,541.00 1020.82,541.00
             1020.82,541.00 1020.00,550.00 1020.00,550.00
             1019.78,568.64 1015.88,587.34 1010.00,605.00
             992.06,658.84 952.95,704.84 901.00,728.69
             880.44,738.13 848.65,747.73 826.00,748.00
             826.00,748.00 810.00,748.82 810.00,748.82
             810.00,748.82 797.00,748.00 797.00,748.00
             773.18,747.72 738.21,737.00 717.00,726.24
             709.32,722.35 700.09,716.86 693.00,711.98
             690.64,710.35 685.84,706.08 683.00,706.58
             680.22,707.07 674.20,713.80 672.00,716.00
             665.60,722.40 651.40,737.42 645.00,742.00
             645.00,742.00 609.00,705.00 609.00,705.00 Z
           M 938.00,637.00
           C 956.94,613.27 970.95,575.53 971.00,545.00
             971.00,545.00 971.00,534.00 971.00,534.00
             970.96,505.73 958.70,471.02 942.56,448.00
             890.28,373.41 784.72,357.48 713.00,413.66
             693.82,428.69 679.64,446.23 668.75,468.00
             655.80,493.90 651.67,518.34 652.00,547.00
             652.35,576.47 665.11,607.67 681.00,632.00
             685.03,630.09 695.37,621.46 696.01,617.00
             696.37,614.49 694.06,611.13 692.85,609.00
             688.37,601.13 687.87,600.47 684.28,592.00
             677.48,575.92 672.98,556.49 673.00,539.00
             673.04,504.82 690.28,464.72 715.09,441.28
             739.70,418.03 774.71,401.40 809.00,401.00
             845.12,400.58 883.34,416.68 908.83,442.17
             934.32,467.66 950.42,505.88 950.00,542.00
             949.79,559.92 943.19,584.01 935.19,600.00
             935.19,600.00 922.00,622.00 922.00,622.00
             922.00,622.00 938.00,637.00 938.00,637.00 Z
           M 1548.00,598.00
           C 1550.17,623.78 1570.42,641.96 1596.00,642.00
             1613.61,642.03 1628.97,640.78 1640.21,625.00
             1644.05,619.62 1645.83,613.58 1644.67,607.00
             1641.35,588.04 1611.57,583.36 1596.00,579.15
             1561.76,569.89 1523.45,563.10 1511.03,524.00
             1509.46,519.06 1508.14,511.18 1508.01,506.00
             1507.84,498.54 1509.00,491.08 1511.35,484.00
             1513.47,477.64 1515.91,472.51 1519.77,467.00
             1533.94,446.75 1561.99,437.04 1586.00,437.00
             1586.00,437.00 1609.00,437.00 1609.00,437.00
             1634.12,437.30 1663.01,449.04 1676.53,471.00
             1684.45,483.86 1687.00,496.15 1687.00,511.00
             1687.00,511.00 1638.00,512.00 1638.00,512.00
             1637.37,507.51 1636.57,504.16 1634.69,500.00
             1625.47,479.61 1609.44,478.91 1590.00,479.00
             1577.99,479.06 1561.40,483.83 1556.57,496.00
             1554.98,499.72 1555.00,503.31 1556.57,507.00
             1563.02,521.21 1591.01,526.87 1605.00,530.37
             1640.00,539.12 1679.58,547.56 1691.28,587.00
             1692.83,592.23 1693.93,598.54 1694.00,604.00
             1694.26,626.62 1690.67,644.15 1673.91,660.91
             1658.48,676.35 1631.46,683.97 1610.00,684.00
             1610.00,684.00 1586.00,684.00 1586.00,684.00
             1577.16,683.89 1564.41,681.47 1556.00,678.67
             1527.80,669.27 1510.48,650.92 1503.13,622.00
             1501.10,614.03 1500.03,610.35 1500.00,602.00
             1500.00,602.00 1548.00,598.00 1548.00,598.00 Z
           M 894.00,593.00
           C 900.24,584.46 902.07,578.80 905.33,569.00
             907.82,561.53 911.36,545.63 910.82,538.00
             908.20,501.16 890.19,469.48 857.00,451.89
             846.52,446.33 821.77,439.35 810.00,440.18
             789.20,441.66 768.72,448.26 752.00,460.90
             731.31,476.53 717.41,500.31 713.73,526.00
             713.24,529.43 711.97,537.96 712.18,541.00
             714.79,577.74 733.33,610.80 767.00,627.63
             777.51,632.89 801.35,639.65 813.00,638.82
             833.03,637.39 845.21,632.56 863.00,624.00
             860.02,617.70 852.06,611.06 847.00,606.00
             845.32,604.31 840.76,600.14 840.20,598.00
             839.39,594.92 843.09,591.94 845.00,590.00
             845.00,590.00 861.00,574.01 861.00,574.01
             862.71,572.34 865.37,569.27 868.00,569.62
             870.39,569.94 874.26,574.27 876.00,576.00
             881.33,581.32 888.07,588.76 894.00,593.00 Z
           M 71.00,441.00
           C 71.00,441.00 247.00,441.00 247.00,441.00
             247.00,441.00 247.00,481.00 247.00,481.00
             247.00,481.00 136.00,481.00 136.00,481.00
             136.00,481.00 166.42,518.00 166.42,518.00
             166.42,518.00 229.08,595.00 229.08,595.00
             229.08,595.00 251.00,622.00 251.00,622.00
             257.51,630.11 260.98,631.28 261.00,642.00
             261.00,642.00 261.00,680.00 261.00,680.00
             261.00,680.00 66.00,680.00 66.00,680.00
             66.00,680.00 66.00,640.00 66.00,640.00
             66.00,640.00 201.00,640.00 201.00,640.00
             201.00,640.00 162.42,592.00 162.42,592.00
             162.42,592.00 104.40,520.00 104.40,520.00
             104.40,520.00 82.75,493.00 82.75,493.00
             76.11,484.96 71.02,481.76 71.00,471.00
             71.00,471.00 71.00,441.00 71.00,441.00 Z
           M 286.00,441.00
           C 286.00,441.00 335.00,441.00 335.00,441.00
             335.00,441.00 335.00,680.00 335.00,680.00
             335.00,680.00 286.00,680.00 286.00,680.00
             286.00,680.00 286.00,441.00 286.00,441.00 Z
           M 383.00,441.00
           C 383.00,441.00 432.00,441.00 432.00,441.00
             432.00,441.00 432.00,594.00 432.00,594.00
             432.02,607.25 433.31,621.97 443.17,631.83
             459.43,648.09 495.80,646.88 511.83,630.83
             521.32,621.32 523.98,608.96 524.00,596.00
             524.00,596.00 524.00,441.00 524.00,441.00
             524.00,441.00 574.00,441.00 574.00,441.00
             574.00,441.00 574.00,573.00 574.00,573.00
             574.00,573.00 573.00,587.00 573.00,587.00
             573.00,587.00 573.00,597.00 573.00,597.00
             573.00,597.00 572.08,607.00 572.08,607.00
             570.57,625.95 568.01,640.78 555.54,656.00
             531.32,685.55 496.48,684.40 462.00,684.00
             442.00,683.76 418.64,675.95 404.29,661.71
             388.59,646.14 385.38,627.98 383.91,607.00
             383.91,607.00 383.00,595.00 383.00,595.00
             383.00,595.00 383.00,441.00 383.00,441.00 Z
           M 1049.00,441.00
           C 1049.00,441.00 1099.00,441.00 1099.00,441.00
             1099.00,441.00 1099.00,596.00 1099.00,596.00
             1099.02,608.96 1101.68,621.32 1111.17,630.83
             1127.20,646.88 1163.57,648.09 1179.83,631.83
             1189.69,621.97 1190.98,607.25 1191.00,594.00
             1191.00,594.00 1191.00,441.00 1191.00,441.00
             1191.00,441.00 1240.00,441.00 1240.00,441.00
             1240.00,441.00 1240.00,595.00 1240.00,595.00
             1240.00,595.00 1239.09,607.00 1239.09,607.00
             1237.62,627.98 1234.41,646.14 1218.71,661.71
             1194.91,685.32 1164.68,684.05 1134.00,684.00
             1109.24,683.96 1083.56,675.64 1067.46,656.00
             1051.91,637.03 1050.04,611.59 1050.00,588.00
             1050.00,588.00 1049.00,571.00 1049.00,571.00
             1049.00,571.00 1049.00,441.00 1049.00,441.00 Z
           M 1290.00,441.00
           C 1290.00,441.00 1467.00,441.00 1467.00,441.00
             1467.00,441.00 1467.00,481.00 1467.00,481.00
             1467.00,481.00 1339.00,481.00 1339.00,481.00
             1339.00,481.00 1339.00,534.00 1339.00,534.00
             1339.00,534.00 1459.00,534.00 1459.00,534.00
             1459.00,534.00 1459.00,574.00 1459.00,574.00
             1459.00,574.00 1339.00,574.00 1339.00,574.00
             1339.00,574.00 1339.00,640.00 1339.00,640.00
             1339.00,640.00 1472.00,640.00 1472.00,640.00
             1472.00,640.00 1472.00,680.00 1472.00,680.00
             1472.00,680.00 1290.00,680.00 1290.00,680.00
             1290.00,680.00 1290.00,441.00 1290.00,441.00 Z
           M 1717.00,441.00
           C 1717.00,441.00 1907.00,441.00 1907.00,441.00
             1907.00,441.00 1907.00,481.00 1907.00,481.00
             1907.00,481.00 1837.00,481.00 1837.00,481.00
             1837.00,481.00 1837.00,680.00 1837.00,680.00
             1837.00,680.00 1787.00,680.00 1787.00,680.00
             1787.00,680.00 1787.00,481.00 1787.00,481.00
             1787.00,481.00 1717.00,481.00 1717.00,481.00
             1717.00,481.00 1717.00,441.00 1717.00,441.00 Z
           M 907.00,668.00
           C 904.94,663.65 895.27,651.74 890.00,653.07
             890.00,653.07 870.00,664.14 870.00,664.14
             853.33,671.70 832.39,677.78 814.00,678.00
             795.82,678.21 776.79,674.06 760.00,667.14
             760.00,667.14 736.00,655.14 736.00,655.14
             730.56,653.93 721.12,665.51 719.00,670.00
             763.49,699.06 812.19,707.42 863.00,690.49
             881.43,684.34 890.88,678.08 907.00,668.00 Z" />
</svg>
