<?xml version="1.0" encoding="UTF-8"?>
<!DOCTYPE svg PUBLIC "-//W3C//DTD SVG 1.1//EN" "http://www.w3.org/Graphics/SVG/1.1/DTD/svg11.dtd">
<!-- Creator: CorelDRAW -->
<svg xmlns="http://www.w3.org/2000/svg" xml:space="preserve" width="1.70666in" height="1.70666in" version="1.1" style="shape-rendering:geometricPrecision; text-rendering:geometricPrecision; image-rendering:optimizeQuality; fill-rule:evenodd; clip-rule:evenodd"
viewBox="0 0 1706.66 1706.66"
 xmlns:xlink="http://www.w3.org/1999/xlink"
 xmlns:xodm="http://www.corel.com/coreldraw/odm/2003">
 <defs>
  <style type="text/css">
   <![CDATA[
    .fil0 {fill:black}
   ]]>
  </style>
 </defs>
 <g id="Layer_x0020_1">
  <metadata id="CorelCorpID_0Corel-Layer"/>
  <path class="fil0" d="M1539.57 1398.46l-1210.69 0c-11.11,0 -20,-9.03 -20,-20l0 -1358.46c0,-11.11 8.89,-20 20,-20l1178.74 0c28.61,0 51.94,23.33 51.94,51.94l0 1326.52c0,11.11 -8.89,20 -20,20zm-1190.69 -40l1170.69 0 0 -1306.52c0,-6.53 -5.42,-11.94 -11.94,-11.94l-1158.74 0 0 1318.46z"/>
  <path class="fil0" d="M1539.57 1706.66l-1218.46 0c-95.97,0 -174.03,-78.06 -174.03,-174.03 0,-95.97 78.06,-174.17 174.03,-174.17l1218.46 0c10.97,0 20,9.03 20,20l0 308.19c0,10.97 -8.89,20 -20,20zm-1218.46 -308.19c-73.89,0 -134.03,60.14 -134.03,134.03 0,73.89 60.14,134.03 134.03,134.03l1198.46 0 0 -268.19 -1198.46 0 0 0.14z"/>
  <path class="fil0" d="M167.36 1548.33c-11.11,0 -20,-9.03 -20,-20l0 -1346.8c0,-100.14 81.39,-181.53 181.53,-181.53 11.11,0 20,8.89 20,20l0 1357.77c0,26.33 -40,26.33 -40,0l0 -1336.39c-68.61,9.72 -121.53,68.89 -121.53,140.14l0 1346.8c0,11.11 -8.89,20 -20,20z"/>
  <path class="fil0" d="M1290.96 1497.49l-872.22 0c-26.33,0 -26.33,-40 0,-40l872.22 0c26.24,0 26.39,40 0,40z"/>
  <path class="fil0" d="M1287.91 1607.77l-872.22 0c-26.33,0 -26.33,-40 0,-40l872.22 0c26.3,0 26.3,40 0,40z"/>
  <path class="fil0" d="M1272.35 678.61l-676.24 0c-46.25,0 -83.89,-37.64 -83.89,-83.89l0 -261.81c0,-46.25 37.64,-83.89 83.89,-83.89l676.24 0c46.25,0 83.89,37.64 83.89,83.89l0 261.67c0,46.39 -37.64,84.03 -83.89,84.03zm-676.24 -389.58c-24.17,0 -43.89,19.72 -43.89,43.89l0 261.67c0,24.17 19.72,43.89 43.89,43.89l676.24 -0c24.17,0 43.89,-19.72 43.89,-43.89l0 -261.67c0,-24.17 -19.72,-43.89 -43.89,-43.89l-676.24 0z"/>
  <path class="fil0" d="M1186.52 425.14l-503.74 0c-26.36,0 -26.36,-40 0,-40l503.74 0c26.26,0 26.43,40 0,40z"/>
  <path class="fil0" d="M1185.69 542.5l-503.75 0c-26.36,0 -26.36,-40 0,-40l503.75 0c26.33,0 26.33,40 0,40z"/>
  <path class="fil0" d="M1236.1 1005.83l-603.74 0c-26.33,0 -26.33,-40 0,-40l603.74 0c26.23,0 26.39,40 0,40z"/>
  <path class="fil0" d="M1122.77 1113.88l-376.94 0c-26.33,0 -26.33,-40 0,-40l376.94 0c26.24,0 26.39,40 0,40z"/>
  <path class="fil0" d="M1286.1 897.63l-703.61 0c-26.33,0 -26.33,-40 0,-40l703.61 0c26.3,0 26.3,40 0,40z"/>
 </g>
</svg>
